<svg width="130" height="121" viewBox="0 0 130 121" fill="none" xmlns="http://www.w3.org/2000/svg">
<path fill-rule="evenodd" clip-rule="evenodd" d="M89.5 1.49995L42.5 23.4999C42.2534 23.6094 -11.6943 43.1981 2.33574 103.441C3.64451 109.06 5.59586 115.051 7 120.5H129.578C121.823 107.703 112.842 92.8299 104.163 75.6286C88.5 44.5842 103.5 23.9999 105.5 16C107.5 10 105.5 5.50003 102 2.5C98.877 -0.176904 93 -3.54052e-05 89.5 1.49995Z" fill="black"/>
<path fill-rule="evenodd" clip-rule="evenodd" d="M94.1303 11.0944L43.3178 33.9934C43.1236 34.0769 0.788935 52.3317 11.8398 98.273C12.8706 102.558 13.9522 106.745 15.0581 110.901H111.607C105.499 101.142 98.8801 90.1811 92.0443 77.0633C77.6265 49.3953 90.2289 22.4356 95.7083 12.9508C96.2781 11.9644 95.1556 10.6324 94.1303 11.0944ZM61.9158 57.3486C65.0055 64.2045 62.1654 72.171 55.5725 75.1421C48.9796 78.1133 41.1302 74.9641 38.0406 68.1082C34.9509 61.2522 37.791 53.2858 44.3839 50.3147C50.9768 47.3435 58.8262 50.4927 61.9158 57.3486Z" fill="#DEDEDE"/>
</svg>
