<svg width="319" height="254" viewBox="0 0 319 254" fill="none" xmlns="http://www.w3.org/2000/svg">
<path fill-rule="evenodd" clip-rule="evenodd" d="M170.309 0.00108467L226.043 0.00105659C227.168 0.00105659 227.644 1.67661 226.719 2.34185C217.827 8.73784 195.26 28.1391 197.037 59.2876C198.114 78.1679 200.317 93.6889 202.265 107.416L202.272 107.465C202.453 108.743 202.632 110.006 202.808 111.254C203.341 115.04 205.375 118.473 208.531 120.653C210.829 122.24 213.073 123.733 215.23 125.097C228.318 133.374 261.819 145.824 287.221 155.264C298.713 159.535 308.547 163.19 314.084 165.564C314.437 165.715 314.814 165.856 315.194 165.999C316.826 166.609 318.541 167.252 318.926 168.908C319.142 169.841 318.896 170.885 318.072 171.619C316.273 173.221 313.952 175.569 311.17 178.384C301.679 187.986 286.813 203.024 268.97 212.467C238.418 228.636 216.93 234.838 186.315 237.146C158.251 239.262 122.25 240.396 99.2427 240.948C95.5125 241.126 93.3167 241.118 93.2924 241.118C93.2605 241.117 92.6421 241.107 91.6076 241.122L90.268 241.15C86.2757 241.262 79.0873 241.706 73.3802 243.387C66.4829 245.418 56.5649 250.989 51.7174 253.845C50.7989 254.387 49.7089 253.412 50.1173 252.4C52.4883 246.524 58.3492 231.942 69.4701 203.967C71.392 199.132 70.4496 193.634 67.0867 189.655C57.6904 178.538 47.7659 166.003 39.6191 153.896C24.0305 130.73 5.30794 86.3458 2.13563 59.2286C-0.111838 40.0171 -0.11415 22.8551 0.0754415 14.4812C0.127281 12.1926 2.63565 10.9768 4.40002 12.3458C12.7841 18.8512 32.5989 33.6234 51.5418 43.2773C70.1646 52.768 97.7419 64.1726 109.603 68.98C110.406 69.3056 111.291 68.7957 111.427 67.9431C112.603 60.551 113.771 53.2158 115.201 45.6715C124.001 -0.753491 170.098 -0.00260412 170.309 0.00108467ZM164.575 42.5512C171.807 42.5512 177.669 36.4551 177.669 28.9352C177.669 21.4152 171.807 15.3191 164.575 15.3191C157.344 15.3191 151.481 21.4152 151.481 28.9352C151.481 36.4551 157.344 42.5512 164.575 42.5512Z" fill="black"/>
</svg>
